<?xml version="1.0" encoding="utf-8"?>
<!-- Generator: Adobe Illustrator 25.2.1, SVG Export Plug-In . SVG Version: 6.00 Build 0)  -->
<svg version="1.1" id="Layer_1" xmlns="http://www.w3.org/2000/svg" xmlns:xlink="http://www.w3.org/1999/xlink" x="0px" y="0px"
	 viewBox="0 0 5387.2 734.2" style="enable-background:new 0 0 5387.2 734.2;" xml:space="preserve">
<style type="text/css">
	.st0{fill:#1D1D1B;}
	.st1{fill-rule:evenodd;clip-rule:evenodd;fill:#DD0429;}
</style>
<path class="st0" d="M1428.6,27.8L1207,702.6h-135L851.3,27.8h153.4l134.6,450.3l135-450.3L1428.6,27.8z"/>
<path class="st0" d="M1820.9,702.6h-135.1V27.8h135.1V702.6z"/>
<path class="st0" d="M2654.5,27.8l-221.6,674.8h-135L2077.1,27.8h153.4l134.6,450.3l135-450.3L2654.5,27.8z"/>
<path class="st0" d="M3046.7,702.6h-135.1V27.8h135L3046.7,702.6z"/>
<path class="st0" d="M3905.3,365.2c0.2,59.8-15.7,118.6-46.1,170.1c-14.7,24.8-32.4,47.8-52.7,68.2c-63.1,63.6-149,99.2-238.6,99
	h-203.3V27.8h203.3c30.3-0.1,60.4,3.9,89.6,12c56.4,15.6,107.7,45.5,148.9,87c20.3,20.5,38,43.4,52.7,68.2
	C3889.5,246.6,3905.4,305.4,3905.3,365.2z M3770.3,365.2c0.2-27-5.2-53.8-15.8-78.6c-20.6-48.5-59.2-87.1-107.7-107.7
	c-24.9-10.7-51.7-16.2-78.8-16h-67.3v404.7h67.3c27.1,0.2,53.9-5.2,78.8-15.8c48.6-20.4,87.3-59.1,107.7-107.7
	c10.5-24.9,15.9-51.8,15.7-78.9H3770.3z"/>
<path class="st0" d="M4659.9,702.6h-472.4V27.8h135v539.7h337.4V702.6z"/>
<path class="st0" d="M5139.7,702.6h-134.6V491.3c-29.2-7.3-57-19.6-82.1-36.2c-49.3-32.6-86.5-80.4-105.9-136.2
	c-10-28.5-15-58.5-14.8-88.7V27.8h135.1v202.3c-0.1,18,3.5,35.9,10.6,52.5c29,68.7,108.2,101,176.9,72c32.5-13.7,58.3-39.5,72-72
	c7.1-16.6,10.7-34.4,10.6-52.5V27.8H5342v202.3c0.1,30.2-4.9,60.2-14.8,88.7c-19.4,55.7-56.5,103.6-105.6,136.2
	c-25,16.7-52.7,29-81.9,36.2L5139.7,702.6z"/>
<g>
	<path class="st1" d="M618.8,27.8c-81.4-0.1-160.7,25.3-226.9,72.6l0,0C325.7,53.1,246.4,27.7,165,27.8H44.1v69.7l0,0l0,230.4
		c-0.1,29.2,4,58.3,12.2,86.3c8.9,29.6,21.2,58.1,36.7,84.9c40.5,69.9,123.2,161.8,287.6,202.4l4.4,1.1h13.8l4.4-1.1
		C567.5,660.9,650.3,569,690.8,499.1c15.5-26.8,27.8-55.3,36.7-84.9c8.2-28,12.4-57.1,12.2-86.3V97.5l0,0V27.8H618.8z M153.7,464
		c-2-3.5-3.9-6.9-5.7-10.3c-22.9-43.2-33.8-91.8-33.8-140.7v-73.2l0,0V97.5h50.9c61,0,120.7,17.4,172.1,50.1
		c-67.9,70.4-109.7,166-109.7,271.6l0,0c-0.1,57.2,15,113.4,43.6,162.9C211.3,545.6,175.1,501.1,153.7,464z M391.9,618.2
		L391.9,618.2c-57.8-47.1-94.8-118.8-94.8-199.1c0-88.9,36.3-169.5,94.8-227.8l0,0c58.5,58.3,94.8,138.9,94.8,227.8
		C486.7,499.4,449.7,571.1,391.9,618.2z M669.7,171.5v68.4l0,0V313c0,48.9-10.8,97.6-33.8,140.8c-1.8,3.4-3.7,6.8-5.7,10.2
		c-21.5,37.1-57.7,81.6-117.4,118c28.6-49.5,43.6-105.7,43.6-162.8l0,0c0-105.5-41.8-201.2-109.7-271.5l0,0
		c51.4-32.8,111.2-50.2,172.2-50.1h50.8L669.7,171.5z"/>
	<path class="st1" d="M367.2,344.2c8.8,15,3.8,34.3-11.1,43.1c-9.9,5.8-22.1,5.8-32,0c-9.6,33.4,9.7,68.3,43.1,77.9
		s68.3-9.7,77.9-43.1c9.6-33.4-9.7-68.3-43.1-77.9C390.6,340.9,378.5,340.9,367.2,344.2z"/>
</g>
</svg>
